<svg width="200" height="200" viewBox="0 0 200 200" fill="none" xmlns="http://www.w3.org/2000/svg">
<line x1="6.8576" y1="61.7785" x2="100.338" y2="115.749" stroke="#E535AB" stroke-width="4"/>
<line x1="98.9236" y1="6.82205" x2="192.024" y2="62.2818" stroke="#E535AB" stroke-width="4"/>
<line x1="5.18045" y1="137.868" x2="100.102" y2="192.671" stroke="#E535AB" stroke-width="4"/>
<line x1="98.8127" y1="193.671" x2="193.735" y2="138.868" stroke="#E535AB" stroke-width="4"/>
<line x1="98.8127" y1="117.165" x2="193.735" y2="62.3623" stroke="#E535AB" stroke-width="4"/>
<line x1="5.09308" y1="62.6114" x2="100.015" y2="7.80821" stroke="#E535AB" stroke-width="4"/>
<line x1="6.78162" y1="63.7122" x2="6.78162" y2="140.218" stroke="#E535AB" stroke-width="4"/>
<line x1="194.221" y1="63.7122" x2="194.221" y2="140.218" stroke="#E535AB" stroke-width="4"/>
<line x1="100.501" y1="115.354" x2="100.501" y2="191.859" stroke="#E535AB" stroke-width="4"/>
<g clip-path="url(#clip0_1_2)">
<path fill-rule="evenodd" clip-rule="evenodd" d="M56.675 56.6836L45.0881 63.5665L48.8101 65.7913L55.8919 61.5846L97.9519 86.726L90.8188 90.9632L94.6428 93.2491L106.281 86.3358L56.675 56.6836ZM100.403 35.1445L107.484 30.9378L103.762 28.7132L92.1751 35.596L141.781 65.2481L153.419 58.3351L149.595 56.0492L142.463 60.286L100.403 35.1445Z" fill="#E535AB"/>
<g clip-path="url(#clip1_1_2)">
<path d="M94.6316 72.223L96.3318 71.9539L87.571 52.3979L85.8708 52.6669L94.6316 72.223Z" fill="#E535AB"/>
<path d="M116.755 57.1032L92.7249 71.3775L93.9682 72.1207L117.998 57.8464L116.755 57.1032Z" fill="#E535AB"/>
<path d="M93.8989 71.5126L112.847 68.5142L112.393 67.5006L93.4448 70.499L93.8989 71.5126Z" fill="#E535AB"/>
<path d="M86.2833 54.5166L105.231 51.5182L104.777 50.5047L85.8292 53.5031L86.2833 54.5166Z" fill="#E535AB"/>
<path d="M81.6921 64.212L83.3915 64.4857L88.4828 53.2045L86.7833 52.9307L81.6921 64.212Z" fill="#E535AB"/>
<path d="M84.9304 53.9667L117.721 59.2484L118.178 58.2362L85.3873 52.9544L84.9304 53.9667Z" fill="#E535AB"/>
<path d="M82.5869 62.6978L81.3415 63.4376L95.1982 71.7204L96.4436 70.9806L82.5869 62.6978Z" fill="#E535AB"/>
<path d="M103.474 50.2908L102.228 51.0306L116.085 59.3134L117.33 58.5736L103.474 50.2908Z" fill="#E535AB"/>
<path d="M110.624 68.0865L112.108 68.3256L116.536 58.5139L115.052 58.2748L110.624 68.0865Z" fill="#E535AB"/>
<path d="M119.385 57.835C119.916 59.0105 118.737 60.2194 116.765 60.5338C114.793 60.8483 112.763 60.1442 112.232 58.9686C111.702 57.7931 112.88 56.5842 114.852 56.2698C116.839 55.9554 118.862 56.655 119.385 57.835Z" fill="#E535AB"/>
<path d="M86.432 63.047C86.9626 64.2225 85.7841 65.4314 83.8121 65.7459C81.8402 66.0603 79.8096 65.3562 79.279 64.1807C78.7484 63.0052 79.927 61.7963 81.8989 61.4818C83.8784 61.1719 85.9014 61.8715 86.432 63.047Z" fill="#E535AB"/>
<path d="M93.9521 72.9426C91.981 72.6228 90.8133 71.4151 91.3396 70.2366C91.8735 69.0625 93.8984 68.3685 95.877 68.6839C97.8481 69.0037 99.0158 70.2114 98.4895 71.3899C97.9481 72.5685 95.9232 73.2625 93.9521 72.9426Z" fill="#E535AB"/>
<path d="M102.802 53.3229C100.831 53.003 99.6634 51.7953 100.19 50.6168C100.724 49.4428 102.749 48.7487 104.727 49.0641C106.698 49.384 107.866 50.5917 107.34 51.7702C106.806 52.9442 104.773 53.6427 102.802 53.3229Z" fill="#E535AB"/>
<path d="M114.001 69.772C112.553 70.6321 110.215 70.6289 108.769 69.7648C107.323 68.9007 107.325 67.507 108.773 66.6469C110.221 65.7868 112.56 65.79 114.006 66.6541C115.444 67.5137 115.449 68.9119 114.001 69.772Z" fill="#E535AB"/>
<path d="M89.8984 55.3643C88.4504 56.2244 86.1116 56.2212 84.666 55.3571C83.2204 54.493 83.2223 53.0993 84.6703 52.2392C86.1183 51.3791 88.4571 51.3823 89.9027 52.2464C91.3483 53.1105 91.3463 54.5042 89.8984 55.3643Z" fill="#E535AB"/>
</g>
</g>
<circle cx="6.5" cy="62.5" r="6" fill="#E535AB"/>
<circle cx="6.5" cy="140" r="6" fill="#E535AB"/>
<circle cx="100.5" cy="191" r="6" fill="#E535AB"/>
<circle cx="194" cy="140" r="6" fill="#E535AB"/>
<circle cx="193" cy="62.5" r="6" fill="#E535AB"/>
<circle cx="100.5" cy="9" r="6" fill="#E535AB"/>
<circle cx="100.5" cy="115" r="6" fill="#E535AB"/>
<path d="M49.7266 107.952C49.2213 107.073 48.3998 106.596 47.8919 106.888L39.6143 111.642C39.1063 111.934 39.1042 112.884 39.6096 113.764C40.1149 114.643 40.9364 115.12 41.4443 114.828L48.8022 110.602L56.1224 123.346C56.6278 124.226 57.4493 124.703 57.9572 124.411C58.4652 124.119 58.4673 123.169 57.9619 122.29L49.7266 107.952ZM50.0316 142.054L50.1043 109.234L47.5095 107.728L47.4368 140.549L50.0316 142.054Z" fill="#E535AB"/>
<path d="M152.088 106.867C151.585 106.581 150.769 107.066 150.265 107.951L142.061 122.378C141.557 123.263 141.557 124.213 142.061 124.499C142.564 124.785 143.38 124.3 143.884 123.415L151.177 110.591L158.469 114.738C158.972 115.025 159.788 114.539 160.292 113.654C160.795 112.768 160.795 111.819 160.292 111.532L152.088 106.867ZM152.465 140.524L152.466 107.703L149.888 109.237L149.886 142.058L152.465 140.524Z" fill="#E535AB"/>
<defs>
<clipPath id="clip0_1_2">
<rect width="109.078" height="109.078" fill="white" transform="matrix(0.859754 -0.510708 0.858343 0.513077 3.76044 59.7571)"/>
</clipPath>
<clipPath id="clip1_1_2">
<rect width="34.9048" height="34.9048" fill="white" transform="matrix(0.859754 -0.510708 0.858343 0.513077 69.3509 60.9642)"/>
</clipPath>
</defs>
</svg>
