<svg width="200" height="200" viewBox="0 0 200 200" fill="none" xmlns="http://www.w3.org/2000/svg">
<g clip-path="url(#clip0_2_2)">
<path fill-rule="evenodd" clip-rule="evenodd" d="M40.1883 18.5502H1.51565V30.9932H25.152V171.604H1.34448V184.388H40.1883V18.5502ZM173.711 30.9932H197.347L197.346 18.5502H158.673V184.388H197.516V171.604H173.711V30.9932Z" fill="#E535AB"/>
<path d="M60.2102 125.388L63.8099 127.466L103.911 58.0102L100.312 55.9319L60.2102 125.388Z" fill="#E535AB"/>
<path d="M139.589 119.839H59.3859V123.996H139.589V119.839Z" fill="#E535AB"/>
<path d="M60.9729 122.174L101.09 145.336L103.168 141.736L63.0512 118.574L60.9729 122.174Z" fill="#E535AB"/>
<path d="M95.8222 61.8079L135.939 84.9698L138.017 81.3702L97.9005 58.2082L95.8222 61.8079Z" fill="#E535AB"/>
<path d="M60.984 81.3544L63.0624 84.954L103.179 61.792L101.101 58.1924L60.984 81.3544Z" fill="#E535AB"/>
<path d="M95.0976 58.0109L135.199 127.467L138.799 125.389L98.6972 55.9326L95.0976 58.0109Z" fill="#E535AB"/>
<path d="M66.7226 78.598H62.566V124.922H66.7226V78.598Z" fill="#E535AB"/>
<path d="M136.434 78.598H132.277V124.922H136.434V78.598Z" fill="#E535AB"/>
<path d="M98.5665 140.432L100.382 143.577L135.272 123.432L133.457 120.288L98.5665 140.432Z" fill="#E535AB"/>
<path d="M141.943 126.274C139.539 130.456 134.18 131.883 129.999 129.479C125.817 127.075 124.39 121.717 126.794 117.535C129.197 113.354 134.556 111.926 138.738 114.33C142.944 116.759 144.372 122.092 141.943 126.274Z" fill="#E535AB"/>
<path d="M72.1814 85.9848C69.7775 90.1665 64.419 91.5938 60.2373 89.1899C56.0556 86.7861 54.6283 81.4275 57.0322 77.2458C59.436 73.0642 64.7946 71.6369 68.9762 74.0407C73.1579 76.4696 74.5852 81.8031 72.1814 85.9848Z" fill="#E535AB"/>
<path d="M57.0572 126.274C54.6534 122.092 56.0806 116.759 60.2623 114.33C64.444 111.926 69.7775 113.354 72.2064 117.535C74.6102 121.717 73.183 127.05 69.0013 129.479C64.7946 131.883 59.461 130.456 57.0572 126.274Z" fill="#E535AB"/>
<path d="M126.819 85.9848C124.415 81.8031 125.842 76.4696 130.024 74.0407C134.205 71.6369 139.539 73.0642 141.968 77.2458C144.372 81.4275 142.944 86.761 138.763 89.1899C134.581 91.5938 129.222 90.1665 126.819 85.9848Z" fill="#E535AB"/>
<path d="M99.5 150.788C94.6673 150.788 90.761 146.882 90.761 142.049C90.761 137.217 94.6673 133.31 99.5 133.31C104.333 133.31 108.239 137.217 108.239 142.049C108.239 146.857 104.333 150.788 99.5 150.788Z" fill="#E535AB"/>
<path d="M99.5 70.2096C94.6673 70.2096 90.761 66.3034 90.761 61.4707C90.761 56.6379 94.6673 52.7317 99.5 52.7317C104.333 52.7317 108.239 56.6379 108.239 61.4707C108.239 66.3034 104.333 70.2096 99.5 70.2096Z" fill="#E535AB"/>
</g>
<defs>
<clipPath id="clip0_2_2">
<rect width="200" height="200" fill="white"/>
</clipPath>
</defs>
</svg>
